<svg xmlns="http://www.w3.org/2000/svg" width="150" height="120" viewBox="0 0 150 120" fill="none">
  <g clip-path="url(#clip0_825_542)">
    <path d="M129.5 0.5H20.5C9.4543 0.5 0.5 9.4543 0.5 20.5V99.5C0.5 110.546 9.4543 119.5 20.5 119.5H129.5C140.546 119.5 149.5 110.546 149.5 99.5V20.5C149.5 9.45431 140.546 0.5 129.5 0.5Z" stroke="#CC0D39"/>
    <path d="M131.5 20.5H110.5C104.977 20.5 100.5 24.9772 100.5 30.5V89.5C100.5 95.0229 104.977 99.5 110.5 99.5H131.5C137.023 99.5 141.5 95.0229 141.5 89.5V30.5C141.5 24.9772 137.023 20.5 131.5 20.5Z" stroke="#CC0D39"/>
    <path d="M39.5 21.5H18.5C12.9772 21.5 8.5 25.9772 8.5 31.5V90.5C8.5 96.0229 12.9772 100.5 18.5 100.5H39.5C45.0228 100.5 49.5 96.0229 49.5 90.5V31.5C49.5 25.9772 45.0228 21.5 39.5 21.5Z" stroke="#CC0D39"/>
    <path d="M85.5 21.5H64.5C58.9772 21.5 54.5 25.9772 54.5 31.5V90.5C54.5 96.0229 58.9772 100.5 64.5 100.5H85.5C91.0228 100.5 95.5 96.0229 95.5 90.5V31.5C95.5 25.9772 91.0228 21.5 85.5 21.5Z" stroke="#CC0D39"/>
  </g>
  <defs>
    <clipPath id="clip0_825_542">
      <rect width="150" height="120" fill="white"/>
    </clipPath>
  </defs>
</svg>