<svg xmlns="http://www.w3.org/2000/svg" width="150" height="120" viewBox="0 0 150 120" fill="none">
  <g clip-path="url(#clip0_825_547)">
    <path d="M129.5 0.5H20.5C9.4543 0.5 0.5 9.4543 0.5 20.5V99.5C0.5 110.546 9.4543 119.5 20.5 119.5H129.5C140.546 119.5 149.5 110.546 149.5 99.5V20.5C149.5 9.45431 140.546 0.5 129.5 0.5Z" stroke="#CC0D39"/>
    <path d="M123.5 86.5H109.5C106.739 86.5 104.5 88.7386 104.5 91.5V102.5C104.5 105.261 106.739 107.5 109.5 107.5H123.5C126.261 107.5 128.5 105.261 128.5 102.5V91.5C128.5 88.7386 126.261 86.5 123.5 86.5Z" stroke="#CC0D39"/>
    <path d="M95.5 86.5H81.5C78.7386 86.5 76.5 88.7386 76.5 91.5V102.5C76.5 105.261 78.7386 107.5 81.5 107.5H95.5C98.2614 107.5 100.5 105.261 100.5 102.5V91.5C100.5 88.7386 98.2614 86.5 95.5 86.5Z" stroke="#CC0D39"/>
    <path d="M123.5 61.5H109.5C106.739 61.5 104.5 63.7386 104.5 66.5V77.5C104.5 80.2614 106.739 82.5 109.5 82.5H123.5C126.261 82.5 128.5 80.2614 128.5 77.5V66.5C128.5 63.7386 126.261 61.5 123.5 61.5Z" stroke="#CC0D39"/>
    <path d="M62.5 61.5H30.5C24.9772 61.5 20.5 65.9772 20.5 71.5V97.5C20.5 103.023 24.9772 107.5 30.5 107.5H62.5C68.0228 107.5 72.5 103.023 72.5 97.5V71.5C72.5 65.9772 68.0228 61.5 62.5 61.5Z" stroke="#CC0D39"/>
    <path d="M95.5 61.5H81.5C78.7386 61.5 76.5 63.7386 76.5 66.5V77.5C76.5 80.2614 78.7386 82.5 81.5 82.5H95.5C98.2614 82.5 100.5 80.2614 100.5 77.5V66.5C100.5 63.7386 98.2614 61.5 95.5 61.5Z" stroke="#CC0D39"/>
    <path d="M67.5 11.5H53.5C50.7386 11.5 48.5 13.7386 48.5 16.5V27.5C48.5 30.2614 50.7386 32.5 53.5 32.5H67.5C70.2614 32.5 72.5 30.2614 72.5 27.5V16.5C72.5 13.7386 70.2614 11.5 67.5 11.5Z" stroke="#CC0D39"/>
    <path d="M39.5 11.5H25.5C22.7386 11.5 20.5 13.7386 20.5 16.5V27.5C20.5 30.2614 22.7386 32.5 25.5 32.5H39.5C42.2614 32.5 44.5 30.2614 44.5 27.5V16.5C44.5 13.7386 42.2614 11.5 39.5 11.5Z" stroke="#CC0D39"/>
    <path d="M118.5 11.5H86.5C80.9772 11.5 76.5 15.9772 76.5 21.5V47.5C76.5 53.0228 80.9772 57.5 86.5 57.5H118.5C124.023 57.5 128.5 53.0228 128.5 47.5V21.5C128.5 15.9772 124.023 11.5 118.5 11.5Z" stroke="#CC0D39"/>
    <path d="M67.5 36.5H53.5C50.7386 36.5 48.5 38.7386 48.5 41.5V52.5C48.5 55.2614 50.7386 57.5 53.5 57.5H67.5C70.2614 57.5 72.5 55.2614 72.5 52.5V41.5C72.5 38.7386 70.2614 36.5 67.5 36.5Z" stroke="#CC0D39"/>
    <path d="M39.5 36.5H25.5C22.7386 36.5 20.5 38.7386 20.5 41.5V52.5C20.5 55.2614 22.7386 57.5 25.5 57.5H39.5C42.2614 57.5 44.5 55.2614 44.5 52.5V41.5C44.5 38.7386 42.2614 36.5 39.5 36.5Z" stroke="#CC0D39"/>
  </g>
  <defs>
    <clipPath id="clip0_825_547">
      <rect width="150" height="120" fill="white"/>
    </clipPath>
  </defs>
</svg>