<svg xmlns="http://www.w3.org/2000/svg" width="150" height="120" viewBox="0 0 150 120" fill="none">
  <g clip-path="url(#clip0_825_576)">
    <path d="M129.5 0.5H20.5C9.4543 0.5 0.5 9.4543 0.5 20.5V99.5C0.5 110.546 9.4543 119.5 20.5 119.5H129.5C140.546 119.5 149.5 110.546 149.5 99.5V20.5C149.5 9.45431 140.546 0.5 129.5 0.5Z" stroke="#CC0D39"/>
    <path d="M123.5 77.5H109.5C106.739 77.5 104.5 79.7386 104.5 82.5V99.5C104.5 102.261 106.739 104.5 109.5 104.5H123.5C126.261 104.5 128.5 102.261 128.5 99.5V82.5C128.5 79.7386 126.261 77.5 123.5 77.5Z" stroke="#CC0D39"/>
    <path d="M39.5 77.5H25.5C22.7386 77.5 20.5 79.7386 20.5 82.5V99.5C20.5 102.261 22.7386 104.5 25.5 104.5H39.5C42.2614 104.5 44.5 102.261 44.5 99.5V82.5C44.5 79.7386 42.2614 77.5 39.5 77.5Z" stroke="#CC0D39"/>
    <path d="M67.5 77.5H53.5C50.7386 77.5 48.5 79.7386 48.5 82.5V99.5C48.5 102.261 50.7386 104.5 53.5 104.5H67.5C70.2614 104.5 72.5 102.261 72.5 99.5V82.5C72.5 79.7386 70.2614 77.5 67.5 77.5Z" stroke="#CC0D39"/>
    <path d="M95.5 77.5H81.5C78.7386 77.5 76.5 79.7386 76.5 82.5V99.5C76.5 102.261 78.7386 104.5 81.5 104.5H95.5C98.2614 104.5 100.5 102.261 100.5 99.5V82.5C100.5 79.7386 98.2614 77.5 95.5 77.5Z" stroke="#CC0D39"/>
    <path d="M123.5 46.5H109.5C106.739 46.5 104.5 48.7386 104.5 51.5V68.5C104.5 71.2614 106.739 73.5 109.5 73.5H123.5C126.261 73.5 128.5 71.2614 128.5 68.5V51.5C128.5 48.7386 126.261 46.5 123.5 46.5Z" stroke="#CC0D39"/>
    <path d="M39.5 46.5H25.5C22.7386 46.5 20.5 48.7386 20.5 51.5V68.5C20.5 71.2614 22.7386 73.5 25.5 73.5H39.5C42.2614 73.5 44.5 71.2614 44.5 68.5V51.5C44.5 48.7386 42.2614 46.5 39.5 46.5Z" stroke="#CC0D39"/>
    <path d="M95.5 46.5H53.5C50.7386 46.5 48.5 48.7386 48.5 51.5V68.5C48.5 71.2614 50.7386 73.5 53.5 73.5H95.5C98.2614 73.5 100.5 71.2614 100.5 68.5V51.5C100.5 48.7386 98.2614 46.5 95.5 46.5Z" stroke="#CC0D39"/>
    <path d="M67.5 15.5H25.5C22.7386 15.5 20.5 17.7386 20.5 20.5V37.5C20.5 40.2614 22.7386 42.5 25.5 42.5H67.5C70.2614 42.5 72.5 40.2614 72.5 37.5V20.5C72.5 17.7386 70.2614 15.5 67.5 15.5Z" stroke="#CC0D39"/>
    <path d="M123.5 15.5H81.5C78.7386 15.5 76.5 17.7386 76.5 20.5V37.5C76.5 40.2614 78.7386 42.5 81.5 42.5H123.5C126.261 42.5 128.5 40.2614 128.5 37.5V20.5C128.5 17.7386 126.261 15.5 123.5 15.5Z" stroke="#CC0D39"/>
  </g>
  <defs>
    <clipPath id="clip0_825_576">
      <rect width="150" height="120" fill="white"/>
    </clipPath>
  </defs>
</svg>