<svg xmlns="http://www.w3.org/2000/svg" width="150" height="120" viewBox="0 0 150 120" fill="none">
  <g clip-path="url(#clip0_825_595)">
    <path d="M129.5 0.5H20.5C9.4543 0.5 0.5 9.4543 0.5 20.5V99.5C0.5 110.546 9.4543 119.5 20.5 119.5H129.5C140.546 119.5 149.5 110.546 149.5 99.5V20.5C149.5 9.45431 140.546 0.5 129.5 0.5Z" stroke="#CC0D39"/>
    <path d="M144.5 15.5H120.5C117.739 15.5 115.5 17.7386 115.5 20.5V99.5C115.5 102.261 117.739 104.5 120.5 104.5H144.5C147.261 104.5 149.5 102.261 149.5 99.5V20.5C149.5 17.7386 147.261 15.5 144.5 15.5Z" stroke="#CC0D39"/>
    <path d="M99.5 15.5H25.5C19.9772 15.5 15.5 19.9772 15.5 25.5V94.5C15.5 100.023 19.9772 104.5 25.5 104.5H99.5C105.023 104.5 109.5 100.023 109.5 94.5V25.5C109.5 19.9772 105.023 15.5 99.5 15.5Z" stroke="#CC0D39"/>
  </g>
  <defs>
    <clipPath id="clip0_825_595">
      <rect width="150" height="120" rx="1" fill="white"/>
    </clipPath>
  </defs>
</svg>