<svg xmlns="http://www.w3.org/2000/svg" width="150" height="120" viewBox="0 0 150 120" fill="none">
  <g clip-path="url(#clip0_825_599)">
    <path d="M130.5 0.5H19.5C9.00659 0.5 0.5 9.00659 0.5 19.5V100.5C0.5 110.993 9.00659 119.5 19.5 119.5H130.5C140.993 119.5 149.5 110.993 149.5 100.5V19.5C149.5 9.00659 140.993 0.5 130.5 0.5Z" stroke="#CC0D39"/>
    <path d="M74.5 0.5H0.5V119.5H74.5V0.5Z" stroke="#CC0D39"/>
    <path d="M130.5 28.5H96.5C93.7386 28.5 91.5 30.7386 91.5 33.5V87.5C91.5 90.2614 93.7386 92.5 96.5 92.5H130.5C133.261 92.5 135.5 90.2614 135.5 87.5V33.5C135.5 30.7386 133.261 28.5 130.5 28.5Z" stroke="#CC0D39"/>
  </g>
  <defs>
    <clipPath id="clip0_825_599">
      <rect width="150" height="120" rx="20" fill="white"/>
    </clipPath>
  </defs>
</svg>