<svg xmlns="http://www.w3.org/2000/svg" width="150" height="120" viewBox="0 0 150 120" fill="none">
  <g clip-path="url(#clip0_825_587)">
    <path d="M129.5 0.5H20.5C9.4543 0.5 0.5 9.4543 0.5 20.5V99.5C0.5 110.546 9.4543 119.5 20.5 119.5H129.5C140.546 119.5 149.5 110.546 149.5 99.5V20.5C149.5 9.45431 140.546 0.5 129.5 0.5Z" stroke="#CC0D39"/>
    <path d="M49.5 74.5H25.5C22.7386 74.5 20.5 76.7386 20.5 79.5V98.5C20.5 101.261 22.7386 103.5 25.5 103.5H49.5C52.2614 103.5 54.5 101.261 54.5 98.5V79.5C54.5 76.7386 52.2614 74.5 49.5 74.5Z" stroke="#CC0D39"/>
    <path d="M87.5 50.5H63.5C60.7386 50.5 58.5 52.7386 58.5 55.5V98.5C58.5 101.261 60.7386 103.5 63.5 103.5H87.5C90.2614 103.5 92.5 101.261 92.5 98.5V55.5C92.5 52.7386 90.2614 50.5 87.5 50.5Z" stroke="#CC0D39"/>
    <path d="M125.5 74.5H101.5C98.7386 74.5 96.5 76.7386 96.5 79.5V98.5C96.5 101.261 98.7386 103.5 101.5 103.5H125.5C128.261 103.5 130.5 101.261 130.5 98.5V79.5C130.5 76.7386 128.261 74.5 125.5 74.5Z" stroke="#CC0D39"/>
    <path d="M49.5 15.5H25.5C22.7386 15.5 20.5 17.7386 20.5 20.5V65.5C20.5 68.2614 22.7386 70.5 25.5 70.5H49.5C52.2614 70.5 54.5 68.2614 54.5 65.5V20.5C54.5 17.7386 52.2614 15.5 49.5 15.5Z" stroke="#CC0D39"/>
    <path d="M87.5 15.5H63.5C60.7386 15.5 58.5 17.7386 58.5 20.5V41.5C58.5 44.2614 60.7386 46.5 63.5 46.5H87.5C90.2614 46.5 92.5 44.2614 92.5 41.5V20.5C92.5 17.7386 90.2614 15.5 87.5 15.5Z" stroke="#CC0D39"/>
    <path d="M125.5 15.5H101.5C98.7386 15.5 96.5 17.7386 96.5 20.5V65.5C96.5 68.2614 98.7386 70.5 101.5 70.5H125.5C128.261 70.5 130.5 68.2614 130.5 65.5V20.5C130.5 17.7386 128.261 15.5 125.5 15.5Z" stroke="#CC0D39"/>
  </g>
  <defs>
    <clipPath id="clip0_825_587">
      <rect width="150" height="120" fill="white"/>
    </clipPath>
  </defs>
</svg>