<svg xmlns="http://www.w3.org/2000/svg" width="150" height="120" viewBox="0 0 150 120" fill="none">
  <g clip-path="url(#clip0_825_603)">
    <path d="M139.5 0.5H10.5C4.97715 0.5 0.5 4.97715 0.5 10.5V109.5C0.5 115.023 4.97716 119.5 10.5 119.5H139.5C145.023 119.5 149.5 115.023 149.5 109.5V10.5C149.5 4.97715 145.023 0.5 139.5 0.5Z" stroke="#CC0D39"/>
    <path d="M54.5 0.5H10.5C4.97715 0.5 0.5 4.97715 0.5 10.5V109.5C0.5 115.023 4.97715 119.5 10.5 119.5H54.5C60.0228 119.5 64.5 115.023 64.5 109.5V10.5C64.5 4.97715 60.0228 0.5 54.5 0.5Z" stroke="#CC0D39"/>
    <path d="M134.5 93.5H115.5C112.739 93.5 110.5 95.7386 110.5 98.5V114.5C110.5 117.261 112.739 119.5 115.5 119.5H134.5C137.261 119.5 139.5 117.261 139.5 114.5V98.5C139.5 95.7386 137.261 93.5 134.5 93.5Z" stroke="#CC0D39"/>
    <path d="M99.5 93.5H80.5C77.7386 93.5 75.5 95.7386 75.5 98.5V114.5C75.5 117.261 77.7386 119.5 80.5 119.5H99.5C102.261 119.5 104.5 117.261 104.5 114.5V98.5C104.5 95.7386 102.261 93.5 99.5 93.5Z" stroke="#CC0D39"/>
    <path d="M134.5 43.5H115.5C112.739 43.5 110.5 45.7386 110.5 48.5V82.5C110.5 85.2614 112.739 87.5 115.5 87.5H134.5C137.261 87.5 139.5 85.2614 139.5 82.5V48.5C139.5 45.7386 137.261 43.5 134.5 43.5Z" stroke="#CC0D39"/>
    <path d="M99.5 60.5H80.5C77.7386 60.5 75.5 62.7386 75.5 65.5V82.5C75.5 85.2614 77.7386 87.5 80.5 87.5H99.5C102.261 87.5 104.5 85.2614 104.5 82.5V65.5C104.5 62.7386 102.261 60.5 99.5 60.5Z" stroke="#CC0D39"/>
    <path d="M134.5 10.5H115.5C112.739 10.5 110.5 12.7386 110.5 15.5V32.5C110.5 35.2614 112.739 37.5 115.5 37.5H134.5C137.261 37.5 139.5 35.2614 139.5 32.5V15.5C139.5 12.7386 137.261 10.5 134.5 10.5Z" stroke="#CC0D39"/>
    <path d="M99.5 10.5H80.5C77.7386 10.5 75.5 12.7386 75.5 15.5V49.5C75.5 52.2614 77.7386 54.5 80.5 54.5H99.5C102.261 54.5 104.5 52.2614 104.5 49.5V15.5C104.5 12.7386 102.261 10.5 99.5 10.5Z" stroke="#CC0D39"/>
  </g>
  <defs>
    <clipPath id="clip0_825_603">
      <rect width="150" height="120" fill="white"/>
    </clipPath>
  </defs>
</svg>